<svg width="150" height="auto" viewBox="0 0 244 63" xmlns="http://www.w3.org/2000/svg" fill-rule="evenodd" clip-rule="evenodd" stroke-linejoin="round" stroke-miterlimit="1.414"><g fill="#fff" fill-rule="nonzero"><path d="M228.176 27.814l14.147-10.603h-17.562L219.579.837l-5.304 16.374h-17.499l14.267 10.603-5.55 16.823 14.086-10.366 14.085 10.366-5.488-16.823zM206.72 61.141c7.024-10.282 8.473-19.427 8.473-19.427s-6.469 6.939-12.021 13.431a228.097 228.097 0 0 0-5.545 5.996h9.093zm10.611 0c3.144-9.962 3.465-21.304 3.465-21.304s-6.987 14.56-9.823 19.962c-.234.447-.464.894-.692 1.342h7.05zm8.696 0c-.199-8.482-2.112-19.459-2.112-19.459s-2.74 11.589-3.618 19.459h5.73zM65.57 27.363a9.966 9.966 0 0 1-1.026 4.428c-1.176 2.402-3.638 3.596-7.373 3.596-1.427 0-2.38-.017-2.855-.064v-8.545c0-1.839.042-3.847.127-6.015 1.089-.157 2.421-.244 3.997-.244 4.748 0 7.13 2.286 7.13 6.844zM54.316 38.73c1.058-.052 2-.084 2.823-.084 6.504 0 9.763 3.1 9.761 9.297.002 3.056-.738 5.446-2.198 7.18-1.576 1.818-3.807 2.727-6.695 2.727-1.533 0-2.717-.072-3.564-.211a80.159 80.159 0 0 1-.127-4.558V38.73zm20.602-12.88c0-1.797-.475-3.393-1.418-4.78-1.797-2.624-5.584-3.937-11.348-3.937-1.257 0-2.792.045-4.612.126-2.293.11-4.864.163-7.718.163-4.484 0-7.636-.065-9.476-.193l-.307.288v2.104l.307.308c2.105.125 3.309.23 3.626.306.592.168.943.55 1.048 1.151.275 1.481.403 4.687.402 9.601v15.708l-.096 6.948c-.032 2.371-.148 3.743-.338 4.112-.704 1.538-2.622 1.07-3.786.318-.92-.602-2.792-3.075-5.606-7.412l-4.769-7.34a166.953 166.953 0 0 1-3.289-5.268c6.324-2.358 9.488-6.343 9.488-11.962 0-1.381-.191-2.58-.562-3.596-.762-2.06-2.273-3.53-4.526-4.397-1.672-.635-4.294-.965-7.868-.965-1.546 0-3.882.066-7.002.192-1.566.065-3.618.097-6.133.097-4.337 0-7.52-.065-9.54-.193l-.308.288v2.104l.308.308c2.104.125 3.309.23 3.625.306.595.168.944.55 1.05 1.151.274 1.481.401 4.687.401 9.601L6.47 47.381c.001 4.918-.126 8.114-.4 9.606-.107.599-.456.982-1.047 1.136-.319.09-1.524.195-3.628.322l-.308.306v2.102l.308.288c1.913-.124 5.097-.188 9.539-.188 4.294 0 7.477.064 9.54.188l.285-.32v-2.07l-.307-.306c-2.116-.127-3.321-.232-3.628-.316-.602-.16-.95-.543-1.057-1.142-.265-1.497-.403-4.688-.403-9.606V31.179c.002-4.876.107-8.332.308-10.354a17.34 17.34 0 0 1 2.983-.244c2.368.002 4.177.286 5.415.872 2.601 1.213 3.901 3.57 3.901 7.064 0 1.996-.444 3.718-1.332 5.166-.877 1.452-1.852 2.455-2.908 3.039-1.153.643-2.751.96-4.769.96-.234 0-.583-.011-1.058-.029l-.338 1.046c.782.623 1.396 1.26 1.829 1.894l3.436 5.234 7.689 12.83c.698 1.161 1.09 1.988 1.175 2.484 2.296-.124 3.965-.188 5.024-.188h12.088c3.487.073 6.979.188 10.469.188 3.902 0 7.096-.708 9.572-2.115 5.022-2.844 7.53-6.865 7.53-12.047 0-6.546-4.251-10.014-12.766-10.384a34.426 34.426 0 0 0 4.463-1.333c1.175-.455 2.316-1.141 3.405-2.072 2.295-1.969 3.438-4.411 3.438-7.34zm31.3-4.832l.402-3.533-.308-.254c-11.093.126-18.052.191-20.886.191-4.378 0-7.562-.065-9.539-.191l-.307.286v2.104l.307.308c2.104.125 3.309.232 3.627.306.592.168.941.55 1.048 1.151.274 1.503.401 4.705.401 9.601v16.394c0 4.898-.127 8.09-.403 9.606-.105.599-.454.982-1.046 1.142-.318.084-1.523.189-3.627.316l-.307.306v2.106l.307.284c3.141-.146 5.593-.208 7.372-.188l12.457.188.339-.319v-2.069l-.309-.308c-2.812-.17-4.292-.275-4.43-.316-.602-.16-.952-.543-1.057-1.142-.265-1.516-.401-4.708-.401-9.606v-7.368c1.12-.067 2.39-.095 3.806-.095 1.184-.001 2.38.052 3.598.144 1.776.148 2.842.583 3.192 1.303.19.381.276 1.65.276 3.818l.314.307h2.076l.306-.275a201.84 201.84 0 0 1-.115-6.853c0-1.916.029-4.04.115-6.348l-.306-.316h-1.926l-.307.316c-.064 2.233-.243 3.6-.56 4.084-.18.296-.549.445-1.111.464-2.854.107-4.801.148-5.858.127l-3.5-.094v-4.177c0-5.459.116-9.233.337-11.348 1.82-.119 3.152-.181 4-.181 5.287 0 8.173.318 8.649.964.286.392.455 1.976.496 4.768l.307.308h1.799l.306-.338.191-2.477c.095-1.288.191-2.315.275-3.096zm8.856 16.847c0-5.447 1.426-9.763 4.272-12.946 2.857-3.184 6.789-4.769 11.801-4.766 4.876-.003 8.611 1.445 11.191 4.366.157.962.274 2.707.34 5.203l.306.336h1.828l.286-.308c.158-3.825.593-7.155 1.3-10.004l-.4-.465c-4.834-1.84-9.786-2.76-14.851-2.76-7.973 0-14.256 2.077-18.865 6.232-4.506 4.025-6.759 9.42-6.759 16.2 0 4.189.92 8.092 2.761 11.676 3.964 7.774 11.338 11.654 22.124 11.654 5.394 0 10.27-1.194 14.628-3.596l1.426-3.164-.783-.706c-3.945 2.125-7.984 3.196-12.108 3.196-4.548 0-8.176-1.059-10.883-3.164-5.076-3.944-7.614-9.604-7.614-16.984zm78.537-18.244v-2.086l-.315-.306c-4.042.128-6.781.193-8.209.193-1.903 0-3.744-.065-5.543-.193l-.316.306v2.086l.316.308c2.063.125 3.331.274 3.808.461.562.236.919.555 1.09.968.202.56.328 1.763.369 3.627.043 1.974.065 5.678.065 11.082v6.451c0 1.733-.097 3.448-.286 5.14-.202 1.819-.498 3.161-.867 4.028-.371.868-1.027 1.725-1.979 2.571-2.03 1.778-4.842 2.665-8.46 2.665-5.52 0-8.98-1.732-10.386-5.205-.696-1.754-1.047-6.534-1.047-14.352v-6.378c0-4.913.129-8.12.404-9.601.104-.601.453-.983 1.047-1.151.314-.074 1.521-.181 3.625-.306l.319-.308-.002-2.083-.317-.307c-1.871.126-5.044.191-9.508.191-4.376 0-7.56-.065-9.537-.191l-.318.307v2.083l.319.308c2.103.125 3.308.23 3.613.306.606.168.955.55 1.06 1.151.264 1.481.403 4.688.403 9.601v7.998c0 7.584.241 12.268.737 14.066.795 2.814 2.467 4.979 5.026 6.504 3.034 1.798 7.254 2.698 12.67 2.698 5.932 0 10.49-1.734 13.698-5.204 2.417-2.622 3.625-7 3.625-13.138v-9.546c0-3.386.032-5.978.096-7.774.072-2.422.199-3.989.368-4.708.307-1.3 1.683-1.954 4.113-1.954l.319-.308z"/></g></svg>